<svg width="879" height="879" viewBox="0 0 879 879" fill="none" xmlns="http://www.w3.org/2000/svg">
<mask id="mask0_632_8" style="mask-type:luminance" maskUnits="userSpaceOnUse" x="117" y="159" width="706" height="560">
<path d="M399.405 456.694C399.405 456.694 262.007 452.316 233.297 443.931C233.297 443.931 208.804 463.517 198.295 498.496L218.593 487.296L201.092 530.681L213.698 526.488L190.603 583.848C190.603 583.848 188.238 586.726 172.403 579.656C172.403 579.656 152.105 572.668 138.1 599.94C138.1 599.94 133.02 613.936 123.231 622.671C123.231 622.671 109.575 640.51 122.696 649.614C122.696 649.614 121.997 702.083 182.213 702.782C182.213 702.782 193.421 701.385 178.017 691.581C178.017 691.581 162.614 671.995 165.411 664.987C165.411 664.987 168.207 668.481 172.403 656.582L181.513 665.686C181.513 665.686 198.315 710.469 236.814 718.155C236.814 718.155 249.421 717.456 241.709 700.665C241.709 700.665 220.711 674.071 223.508 667.782C223.508 667.782 235.416 668.481 236.115 648.196L235.416 634.899C235.416 634.899 243.107 642.586 268.32 630.707C268.32 630.707 293.534 627.912 299.827 611.819C299.827 611.819 305.955 621.787 317.513 619.157L298.613 650.108C298.613 650.108 292.835 662.706 320.66 651.156C320.66 651.156 350.068 652.738 353.215 600.783C353.215 600.783 362.14 593.96 351.117 570.88L330.12 555.672C330.12 555.672 324.341 548.335 310.685 556.72L295.467 562.495C295.467 562.495 299.662 535.202 291.786 514.219L367.919 531.544C367.919 531.544 363.724 571.415 370.017 587.692C370.017 587.692 379.991 614.45 353.75 635.968C353.75 635.968 373.184 636.502 414.13 621.808C414.13 621.808 455.611 606.599 531.744 593.467C531.744 593.467 588.978 553.596 625.729 576.676L725.492 552.014L715.518 378.33C715.518 378.33 745.441 380.96 750.705 340.555C750.705 340.555 758.582 335.315 763.045 341.871C763.045 341.871 762.777 345.282 770.921 343.453C770.921 343.453 767.24 362.875 756.484 368.65C756.484 368.65 787.991 382.563 801.379 334.287C801.379 334.287 820.011 338.212 822.643 299.123C822.643 299.123 822.109 267.37 795.332 247.702C795.332 247.702 771.189 223.04 744.926 237.2C744.926 237.2 734.952 212.805 706.325 214.12C706.325 214.12 672.454 213.072 667.723 248.236V286.545C667.723 286.545 643.045 285.497 642.777 318.03C642.777 318.03 652.32 420.523 605.06 520.919L583.364 521.967C583.364 521.967 556.752 473.341 540.649 459.345C540.649 459.345 571.456 452.707 578.798 432.751L610.654 439.389L603.312 425.393L608.207 406.506L615.549 409.301L615.898 382.358L621.143 381.659L617.646 355.764L629.554 354.017C629.554 354.017 623.96 338.973 605.76 317.291C605.76 317.291 634.634 295.423 629.389 245.585C629.389 245.585 627.806 195.212 606.808 159C606.808 159 572.67 216.196 519.652 246.633V217.244L494.192 236.398V206.495L467.683 231.425V209.126C467.683 209.126 440.906 223.553 433.544 245.852C433.544 245.852 374.027 216.545 350.233 159.185C350.233 159.185 290.017 249.079 347.436 315.194L348.135 320.435L329.585 340.72C329.585 340.72 325.739 349.475 335.714 354.716C335.714 354.716 329.071 387.414 346.387 409.98C346.387 409.98 356.547 421.18 349.184 440.067C349.184 440.067 349.883 447.405 368.433 432.545L399.405 456.673V456.694Z" fill="white"/>
</mask>
<g mask="url(#mask0_632_8)">
<path d="M834.016 144.675H114.655V712.441H834.016V144.675Z" fill="url(#paint0_linear_632_8)"/>
<path d="M604.711 186.128C604.711 186.128 643.908 258.882 599.117 306.11L580.916 293.163L568.31 256.087C568.31 256.087 597.019 224.602 604.711 186.128Z" fill="#FD0884"/>
<path d="M347.786 180.518C347.786 180.518 308.588 268.665 359.344 308.207L377.894 288.97L386.305 263.424C386.305 263.424 354.099 221.786 347.806 180.518H347.786Z" fill="#FD0884"/>
<path opacity="0.9" d="M502.582 287.819C502.582 287.819 469.246 303.829 485.513 327.69C485.513 327.69 495.755 337.144 515.436 323.23C515.436 323.23 565.328 268.911 583.425 285.969C583.425 285.969 557.965 252.388 503.878 296.985C503.878 296.985 497.585 294.622 512.536 283.606C512.536 283.606 535.117 264.184 556.896 257.361C556.896 257.361 583.158 246.078 594.181 188.369L606.253 164.755C606.253 164.755 606.788 198.871 593.132 226.143L591.549 229.472L596.094 232.103L588.217 238.741L593.996 239.974L575.96 253.436L581.389 255.717L577.194 258.862L593.297 260.793L582.623 262.89L591.734 267.082L582.109 267.267L600.145 273.741L584.742 273.042L588.937 279.866L585.256 280.564L597.328 283.544L587.518 284.428L595.209 289.669L584.536 287.223L589.431 295.095L589.246 298.239L593.626 306.46L598.356 308.042L607.816 320.99L625.4 345.652L616.906 348.714C616.906 348.714 594.51 306.994 571.58 297.561C571.58 297.561 589.266 330.629 569.482 350.564C569.482 350.564 544.803 380.816 512.783 361.58C512.783 361.58 513.832 368.752 499.827 373.993L484.073 386.057V390.599C484.073 390.599 492.834 399.005 508.402 397.936C508.402 397.936 530.798 396.004 539.374 381.145L541.39 379.398L564.937 378.864H572.814C572.814 378.864 577.194 422.598 517.163 444.281L518.397 454.783L441.03 453.385L442.079 445.164C442.079 445.164 401.647 436.594 388.176 406.691C388.176 406.691 377.318 389.551 380.835 365.238C380.835 365.238 423.364 400.402 446.644 399.169C446.644 399.169 464.68 398.82 469.575 389.366V384.29L444.197 370.294C444.197 370.294 439.652 368.013 441.05 361.374C441.05 361.374 430.027 372.924 415.138 370.828C415.138 370.828 376.639 366.636 375.241 330.423V298.075L361.421 310.673L365.801 300.52L366.336 295.279L356.876 294.93L364.053 292.484C364.053 292.484 356.362 288.641 357.061 288.641C357.76 288.641 366.336 286.894 366.336 286.894L363.004 280.955L368.598 278.16L353.894 274.132L368.948 271.337L360.721 267.658L369.482 264.678L367.2 257.69H375.96L378.058 256.642L375.076 251.915L367.035 246.489L353.38 224.273L368.598 234.775C368.598 234.775 350.398 203.125 345.853 171.989L362.84 190.177C362.84 190.177 356.547 219.916 404.32 261.369C404.32 261.369 418.675 273.782 433.194 278.345C433.194 278.345 448.948 285.168 450.881 300.911C450.881 300.911 448.783 305.103 440.022 293.389C440.022 293.389 421.636 273.104 395.21 270.823C395.21 270.823 378.757 270.823 371.58 284.284C371.58 284.284 386.798 281.489 398.007 291.272L428.629 314.352L446.13 328.347C446.13 328.347 465.914 342.158 470.994 322.223C470.994 322.223 477.287 304.898 458.223 293.019L449.462 286.381C449.462 286.381 448.063 279.043 458.922 287.264L472.577 296.019C472.577 296.019 475.909 298.301 475.909 292.69L475.559 286.216C475.559 286.216 476.608 284.284 477.307 286.565L479.94 295.136C479.94 295.136 481.688 298.629 486.233 292.505C486.233 292.505 503.035 281.14 502.603 287.86L502.582 287.819Z" fill="#260D2F"/>
<path opacity="0.2" d="M502.582 285.374C502.582 285.374 469.246 301.383 485.513 325.244C485.513 325.244 495.755 334.698 515.436 320.784C515.436 320.784 565.328 266.466 583.425 283.524C583.425 283.524 557.965 249.942 503.878 294.54C503.878 294.54 497.585 292.176 512.536 281.16C512.536 281.16 535.117 261.739 556.896 254.916C556.896 254.916 583.158 243.633 594.181 185.923L606.253 162.309C606.253 162.309 606.788 196.425 593.132 223.697L591.549 227.027L596.094 229.657L588.217 236.296L593.996 237.529L575.96 250.99L581.389 253.271L577.194 256.416L593.297 258.348L582.623 260.444L591.734 264.637L582.109 264.822L600.145 271.295L584.742 270.597L588.937 277.42L585.256 278.119L597.328 281.099L587.518 281.982L595.209 287.223L584.536 284.777L589.431 292.649L589.245 295.793L593.626 304.014L598.356 305.597L607.816 318.544L625.934 343.905L616.474 347.481C616.474 347.481 594.51 304.548 571.58 295.095C571.58 295.095 589.266 328.163 569.482 348.098C569.482 348.098 544.803 378.35 512.783 359.114C512.783 359.114 513.832 366.286 499.827 371.527L484.073 383.591V388.133C484.073 388.133 492.834 396.539 508.402 395.47C508.402 395.47 530.798 393.538 539.374 378.679L541.39 376.932L564.937 376.398H572.814C572.814 376.398 577.194 420.132 517.163 441.814L518.397 452.316L441.03 450.919L442.079 442.698C442.079 442.698 401.647 434.128 388.176 404.225C388.176 404.225 377.318 387.085 380.835 362.772C380.835 362.772 423.364 397.936 446.644 396.703C446.644 396.703 464.68 396.354 469.575 386.9V381.823L444.197 367.828C444.197 367.828 439.652 365.546 441.05 358.908C441.05 358.908 430.027 370.458 415.138 368.362C415.138 368.362 376.639 364.169 375.241 327.957V295.608L361.421 308.207L365.801 298.054L366.336 292.813L356.876 292.464L364.053 290.018C364.053 290.018 356.362 286.175 357.061 286.175C357.76 286.175 366.336 284.428 366.336 284.428L363.004 278.489L368.598 275.694L353.894 271.665L368.948 268.87L360.721 265.192L369.482 262.212L367.2 255.224H375.96L378.058 254.176L375.076 249.449L367.035 244.023L353.38 221.807L368.598 232.309C368.598 232.309 350.398 200.659 345.853 169.523L362.84 187.711C362.84 187.711 356.547 217.45 404.32 258.903C404.32 258.903 418.675 271.316 433.194 275.879C433.194 275.879 448.948 282.702 450.881 298.444C450.881 298.444 448.783 302.637 440.022 290.923C440.022 290.923 421.636 270.638 395.21 268.357C395.21 268.357 378.757 268.357 371.58 281.818C371.58 281.818 386.798 279.023 398.007 288.806L428.629 311.885L446.13 325.881C446.13 325.881 465.914 339.692 470.994 319.757C470.994 319.757 477.287 302.432 458.223 290.553L449.462 283.914C449.462 283.914 448.063 276.577 458.922 284.798L472.577 293.553C472.577 293.553 475.909 295.834 475.909 290.224L475.559 283.75C475.559 283.75 476.608 281.818 477.307 284.099L479.94 292.669C479.94 292.669 481.688 296.163 486.233 290.039C486.233 290.039 503.035 278.674 502.603 285.394L502.582 285.374Z" fill="#260D2F"/>
<path opacity="0.9" d="M690.839 255.738C690.839 255.738 703.795 277.42 720.597 262.027L724.443 257.834L745.44 246.284C745.44 246.284 755.6 247.332 752.433 276.022L778.345 284.428L780.792 278.489L794.448 292.135L799.343 306.48L787.435 297.376L784.988 302.966C784.988 302.966 761.893 300.87 749.286 320.805C749.286 320.805 746.489 328.142 755.929 324.997L761.872 318.709C761.872 318.709 758.376 334.451 770.633 336.548L768.885 346.001L758.376 339.363L749.265 338.664L747.867 356.503L728.618 383.447L719.158 385.543L716.71 431.025L731.415 538.079L710.068 565.372L681.708 575.175L692.566 412.857L695.363 375.432C695.363 375.432 676.813 382.419 670.15 361.087C670.15 361.087 683.456 361.785 683.106 352.681L686.952 334.143L695.713 299.863L706.921 296.019L707.62 284.469C707.62 284.469 683.476 274.666 690.818 255.779L690.839 255.738Z" fill="#260D2F"/>
<path opacity="0.2" d="M685.615 260.937C685.615 260.937 698.572 282.619 715.374 267.226L719.22 263.034L740.217 251.483C740.217 251.483 750.376 252.532 747.209 281.222L773.122 289.628L775.569 283.688L789.225 297.335L794.119 311.68L782.212 302.575L779.764 308.165C779.764 308.165 756.669 306.069 744.063 326.004C744.063 326.004 741.266 333.342 750.705 330.197L756.649 323.908C756.649 323.908 753.153 339.651 765.41 341.747L763.662 351.201L753.153 344.563L744.042 343.864L742.644 361.703L723.394 388.647L713.934 390.743L711.487 436.224L726.191 543.279L704.844 570.572L676.484 580.375L687.343 418.056L690.14 380.631C690.14 380.631 671.59 387.619 664.927 366.286C664.927 366.286 678.232 366.985 677.883 357.88L681.729 339.343L690.49 305.062L701.698 301.219L702.397 289.669C702.397 289.669 678.253 279.866 685.595 260.978L685.615 260.937Z" fill="#260D2F"/>
<path opacity="0.83" d="M409.379 490.81L408.331 455.481L232.249 437.992L190.233 489.762L191.632 516.356L178.675 566.729L143.323 574.415L116.012 607.997L112.516 634.94L116.711 651.731C116.711 651.731 135.652 642.031 145.112 618.149C145.112 618.149 148.65 606.99 156.917 602.283C156.917 602.283 160.208 600.701 163.477 593.754L185.791 598.748L176.598 634.426C176.598 634.426 172.259 647.292 176.331 649.779L179.477 653.067C179.477 653.067 190.11 647.559 195.231 625.527C195.231 625.527 199.961 601.913 210.984 589.973C210.984 589.973 221.082 587.486 227.786 592.46C227.786 592.46 232.516 596.262 235.128 588.123L219.375 573.963C219.375 573.963 233.956 552.178 236.835 547.471L232.639 539.991C232.639 539.991 231.858 515.328 254.027 492.639L231.981 503.655L251.148 466.662H290.655L302.459 482.281L306.922 470.34L334.747 470.998L340.382 486.206L345.38 471.902L372.3 471.779L377.688 491.324L379.786 472.56L402.099 472.293L409.318 490.831L409.379 490.81Z" fill="#FFF388"/>
<path d="M301.061 645.566C319.919 628.199 322.428 605.428 322.449 605.202L322.49 604.873L322.572 604.544C325.801 592.542 334.397 590.754 339.23 590.754C343.59 590.754 347.066 592.151 347.436 592.295L349.616 593.199L349.945 595.522C356.485 643.264 305.071 652.512 304.557 652.615L290.901 654.917L301.081 645.525L301.061 645.566Z" fill="#F4FFB1"/>
<path d="M339.23 594.864C342.891 594.864 345.853 596.097 345.853 596.097C351.94 640.448 303.837 648.566 303.837 648.566C324.053 629.946 326.521 605.592 326.521 605.592C328.886 596.796 334.603 594.844 339.21 594.844M339.21 586.623C328.968 586.623 321.462 592.747 318.583 603.455L318.418 604.092L318.356 604.75C318.356 604.935 315.806 626.35 298.264 642.503L277.904 661.267L305.215 656.643C305.77 656.54 319.138 654.218 331.724 645.751C343.94 637.53 357.719 622.054 353.996 594.946L353.359 590.281L349.02 588.472C348.279 588.164 344.29 586.602 339.23 586.602L339.21 586.623Z" fill="#260D2F"/>
<path opacity="0.83" d="M384.701 298.855L351.097 343.987L356.094 360.244L350.583 370.993L354.264 384.639L355.847 394.607L362.675 408.52C362.675 408.52 366.089 415.857 371.6 413.247L362.675 441.054L348.752 447.61L330.901 433.183L319.878 381.227L315.95 333.732L352.433 317.722L379.991 295.937L384.721 298.814L384.701 298.855Z" fill="#FFF388"/>
<path opacity="0.83" d="M352.948 184.464C352.413 185.245 344.289 213.319 344.289 213.319C344.289 213.319 334.315 247.435 335.097 263.424C335.878 279.413 329.318 266.055 329.318 266.055C329.318 266.055 332.732 247.435 321.441 216.196L345.852 172.914L352.948 184.464Z" fill="#FFF388"/>
<path opacity="0.83" d="M433.811 271.83L456.392 240.077L462.952 230.109L464.783 202.817C464.783 202.817 432.228 228.26 431.179 246.9L433.811 271.83Z" fill="#FFF388"/>
<path opacity="0.83" d="M458.736 261.061C458.736 261.061 479.487 243.222 487.096 231.158L497.338 215.949L497.605 198.891L475.559 209.64L456.927 256.601C456.927 256.601 454.562 263.938 458.757 261.061H458.736Z" fill="#FFF388"/>
<path opacity="0.83" d="M482.12 260.814C482.12 260.814 487.631 262.91 501.287 249.798L523.086 230.13L525.719 212.805L501.04 224.088L486.603 248.216L482.14 260.814H482.12Z" fill="#FFF388"/>
<path opacity="0.83" d="M515.724 270.247C515.724 270.247 554.325 242.831 569.009 227.623C569.009 227.623 590.15 206.249 594.037 191.554L586.078 173.715L523.333 239.563C523.333 239.563 509.945 261.595 515.724 270.268V270.247Z" fill="#FFF388"/>
<path d="M292.464 450.241C292.464 450.241 308.567 470.525 305.071 494.324C305.071 494.324 312.763 501.312 314.881 460.393L337.976 459.694C337.976 459.694 346.737 473.341 345.318 499.565C345.318 499.565 353.359 491.159 355.128 462.49L407.631 464.935L410.778 443.602L318.706 441.157L292.444 450.261L292.464 450.241Z" fill="#1C002A"/>
<path d="M250.284 549.938C250.284 549.938 219.827 537.072 203.56 571.723L240.043 579.06L236.362 587.979C236.362 587.979 215.097 576.696 209.585 578.793C209.585 578.793 191.899 574.682 176.372 649.758C176.372 649.758 167.138 625.137 184.989 592.953L164.341 584.917L158.398 571.62L188.506 564.982L210.901 550.287C210.901 550.287 237.863 521.946 250.284 549.938Z" fill="#260D2F"/>
<path d="M237.164 501.661L215.817 535.593L213.719 526.488L209.873 521.597C209.873 521.597 218.634 511.444 237.184 501.661H237.164Z" fill="#1C002A"/>
<path d="M215.467 505.854L231.22 473.32L214.418 478.212L218.264 482.774L215.467 505.854Z" fill="#1C002A"/>
<path opacity="0.83" d="M721.276 221.108C721.276 221.108 693.307 223.04 681.502 250.579L677.163 288.97L668.937 286.874L671.261 250.065C671.261 250.065 683.209 194.884 721.276 221.108Z" fill="#FFF388"/>
<path opacity="0.83" d="M744.782 248.031C744.782 248.031 758.438 237.529 786.386 247.373C786.386 247.373 748.587 208.14 744.782 248.031Z" fill="#FFF388"/>
<path opacity="0.83" d="M690.14 301.383C690.14 301.383 650.058 291.066 645.328 331.821L643.395 340.576V312.235C643.395 312.235 661.43 270.083 690.119 301.383H690.14Z" fill="#FFF388"/>
<path opacity="0.83" d="M382.089 289.484C382.089 289.484 393.647 263.773 433.03 292.978C433.03 292.978 409.935 241.906 369.153 284.058L382.11 289.484H382.089Z" fill="#FFFC69"/>
<path opacity="0.83" d="M516.156 290.881C516.156 290.881 542.068 271.46 563.58 273.392C563.58 273.392 534.706 261.677 516.156 290.881Z" fill="#FFFC69"/>
<path opacity="0.83" d="M503.034 290.183C503.034 290.183 486.767 302.596 482.736 320.62C482.736 320.62 478.191 295.608 503.034 290.183Z" fill="#FFFC69"/>
<path d="M707.374 305.144C707.374 305.144 706.592 297.006 722.86 297.006C722.86 297.006 737.297 298.321 732.052 320.353C732.052 320.353 729.955 324.545 739.394 322.716C739.394 322.716 744.392 322.716 739.662 351.571C739.662 351.571 721.029 382.276 705.79 360.491C705.79 360.491 683.991 365.731 682.695 351.304C682.695 351.304 718.664 334.246 707.374 305.124V305.144Z" fill="#FD0884"/>
<path d="M451.744 366.8C451.744 366.8 442.983 353.852 473.976 353.503C473.976 353.503 497.77 351.222 503.384 362.957C503.384 362.957 507.23 372.061 488.166 367.499C488.166 367.499 488.516 384.475 476.608 384.29C476.608 384.29 467.148 384.639 465.935 369.246C465.935 369.246 452.629 370.129 451.765 366.8H451.744Z" fill="#FE007D"/>
<path opacity="0.9" d="M539.6 483.822C539.6 483.822 550.623 492.742 551.672 514.773C551.672 514.773 549.574 537.339 570.058 547.841C570.058 547.841 593.153 545.745 605.245 554.665C605.245 554.665 608.926 545.745 614.171 546.793C614.171 546.793 623.631 541.018 621.513 576.182C619.394 611.347 619.415 576.717 619.415 576.717C619.415 576.717 586.325 564.119 571.641 582.492L489.194 611.347L354.778 643.346L345.318 639.667L362.654 605.037L367.899 531.585L305.421 518.987L293.863 517.404L298.058 553.082L295.96 571.969C295.96 571.969 278.624 577.21 272.331 554.644C272.331 554.644 266.038 523.159 280.742 510.56C280.742 510.56 288.228 490.481 269.719 478.561L302.809 495.352L308.053 484.336L355.827 506.368L354.243 493.769C354.243 493.769 356.875 491.139 362.654 500.058C362.654 500.058 365.287 504.785 375.261 506.882C375.261 506.882 401.523 507.416 419.888 582.451C419.888 582.451 403.086 563.564 393.626 563.029C393.626 563.029 413.06 594.515 403.086 609.723C403.086 609.723 471.878 591.884 473.441 592.398C475.004 592.912 514.387 574.559 530.675 580.334C530.675 580.334 543.281 555.137 540.649 519.459L539.6 483.781V483.822Z" fill="#260D2F"/>
<path opacity="0.2" d="M544.063 479.363C544.063 479.363 555.086 488.282 556.135 510.314C556.135 510.314 554.037 532.88 574.52 543.382C574.52 543.382 597.615 541.285 609.708 550.205C609.708 550.205 613.389 541.285 618.633 542.334C618.633 542.334 628.093 536.558 625.975 571.723C623.857 606.887 623.878 572.257 623.878 572.257C623.878 572.257 590.788 559.659 576.104 578.032L493.657 606.887L359.24 638.886L349.78 635.207L367.117 600.578L372.361 527.125L309.883 514.527L298.325 512.944L302.521 548.622L300.423 567.51C300.423 567.51 283.086 572.75 276.793 550.184C276.793 550.184 270.5 518.699 285.205 506.101C285.205 506.101 292.69 486.021 274.181 474.101L307.271 490.892L312.516 479.876L360.289 501.908L358.706 489.31C358.706 489.31 361.338 486.679 367.117 495.599C367.117 495.599 369.749 500.326 379.724 502.422C379.724 502.422 405.986 502.956 424.351 577.991C424.351 577.991 407.549 559.104 398.089 558.57C398.089 558.57 417.523 590.055 407.549 605.263C407.549 605.263 476.341 587.424 477.903 587.938C479.466 588.452 518.849 570.099 535.137 575.874C535.137 575.874 547.744 550.678 545.112 515L544.063 479.322V479.363Z" fill="#260D2F"/>
<path d="M564.279 507.95C564.279 507.95 548.012 481.192 534.356 476.465C534.356 476.465 528.063 504.806 516.505 517.918L512.31 509.512C512.31 509.512 482.387 558.302 463.487 562.516L461.904 533.126C461.904 533.126 460.32 526.837 449.832 525.255C449.832 525.255 437.76 515.287 419.909 475.93L403.642 469.642L376.865 435.525L349.205 440.067L371.6 413.227C371.6 413.227 413.616 445.493 440.906 452.316C440.906 452.316 481.852 469.107 526.5 450.22C526.5 450.22 570.613 429.237 579.004 410.349L615.24 440.252L580.587 452.316L556.443 470.69L564.32 507.95H564.279Z" fill="#260D2F"/>
<path opacity="0.2" d="M568.495 513.725C568.495 513.725 552.228 486.967 538.572 482.24C538.572 482.24 532.279 510.581 520.721 523.693L516.526 515.287C516.526 515.287 486.603 564.077 467.703 568.291L466.12 538.901C466.12 538.901 464.536 532.612 454.048 531.03C454.048 531.03 441.976 521.062 424.125 481.705L407.858 475.417L381.081 441.301L353.421 445.842L378.984 417.686C378.984 417.686 417.832 451.268 445.143 458.091C445.143 458.091 486.089 474.882 530.737 455.995C530.737 455.995 574.85 435.012 583.24 416.124L619.477 446.027L584.824 458.091L560.68 476.465L568.557 513.725H568.495Z" fill="#260D2F"/>
<path opacity="0.2" d="M557.143 493.584C552.022 486.802 545.05 478.808 538.346 475.006C536.742 474.101 534.726 474.964 534.274 476.732C532.464 483.72 527.59 500.408 520.042 511.3C518.829 513.047 516.176 512.862 515.23 510.971C514.264 509.04 511.569 508.875 510.397 510.684C503.302 521.597 483.292 550.883 468.053 558.179C466.243 559.042 464.104 557.83 464.001 555.816L462.644 530.557C462.644 530.27 462.582 529.982 462.459 529.715C461.883 528.297 459.498 523.898 451.354 522.419C450.819 522.316 450.305 522.09 449.893 521.699C447.22 519.11 436.3 507.293 421.081 473.999C420.773 473.341 420.217 472.807 419.539 472.539L405.04 466.929C404.567 466.744 404.156 466.435 403.847 466.045L378.572 433.84C377.935 433.039 376.927 432.648 375.919 432.813L357.822 435.793C355.21 436.224 353.523 433.121 355.292 431.148L373.637 410.925C374.644 409.815 376.331 409.692 377.482 410.637C385.811 417.563 418.017 443.438 441.606 449.336C441.606 449.336 482.51 466.107 527.117 447.281C527.179 447.261 527.22 447.24 527.282 447.219C529.215 446.295 567.302 427.86 578.202 410.226C579.086 408.787 581.102 408.52 582.397 409.589L612.114 434.128C613.801 435.525 613.307 438.197 611.251 438.917L581.698 449.213C581.41 449.316 581.163 449.46 580.916 449.624L558.521 466.641C557.657 467.299 557.245 468.388 557.472 469.436L562.099 491.303C562.716 494.222 558.932 495.948 557.143 493.584Z" fill="#260D2F"/>
<path opacity="0.9" d="M322.223 609.744C322.223 609.744 302.788 614.471 305.421 591.905C305.421 591.905 307.004 585.081 313.832 579.306C313.832 579.306 311.734 572.483 300.711 585.595C300.711 585.595 280.762 603.969 268.691 584.013C268.691 584.013 242.963 590.836 240.331 607.627C240.331 607.627 231.919 612.868 228.259 605.531C228.259 605.531 215.652 601.338 219.333 622.856C219.333 622.856 228.259 636.502 224.578 649.614L221.431 671.132L237.184 672.715L244.012 642.812L289.688 628.651L307.025 623.924L319.631 619.732L322.264 609.764L322.223 609.744Z" fill="#260D2F"/>
<path opacity="0.2" d="M322.223 605.551C322.223 605.551 302.788 610.278 305.421 587.712C305.421 587.712 307.004 580.889 313.832 575.114C313.832 575.114 311.734 568.291 300.711 581.403C300.711 581.403 280.762 599.776 268.691 579.82C268.691 579.82 242.963 586.643 240.331 603.434C240.331 603.434 231.919 608.675 228.259 601.338C228.259 601.338 215.652 597.145 219.333 618.663C219.333 618.663 228.259 632.31 224.578 645.422L221.431 666.94L237.184 668.522L244.012 638.619L289.688 624.459L307.025 619.732L319.631 615.539L322.264 605.572L322.223 605.551Z" fill="#260D2F"/>
<path d="M505.996 358.579C505.996 358.579 499.353 346.166 477.986 347.029C477.986 347.029 457.338 345.981 447.713 362.422C447.713 362.422 439.837 354.9 467.662 339.507L475.189 333.732C475.189 333.732 478.685 330.937 480.968 334.616C480.968 334.616 486.397 339.507 491.477 341.788C491.477 341.788 512.31 353.688 505.996 358.579Z" fill="#9F54EC"/>
<path opacity="0.8" d="M477.739 361.539C482.816 361.539 486.932 359.662 486.932 357.346C486.932 355.031 482.816 353.154 477.739 353.154C472.662 353.154 468.546 355.031 468.546 357.346C468.546 359.662 472.662 361.539 477.739 361.539Z" fill="#FFFB90"/>
<path opacity="0.6" d="M463.672 360.634C467.136 360.634 469.945 359.355 469.945 357.778C469.945 356.2 467.136 354.921 463.672 354.921C460.208 354.921 457.4 356.2 457.4 357.778C457.4 359.355 460.208 360.634 463.672 360.634Z" fill="#FFFB90"/>
<path d="M389.081 378.165C389.081 378.165 441.585 430.285 476.937 394.607C476.937 394.607 514.037 428.188 541.348 390.763L545.544 385.872L563.045 383.077C563.045 383.077 561.297 433.45 507.744 436.594C507.744 436.594 465.379 402.314 443.683 442.184C443.683 442.184 384.865 423.297 389.081 378.165Z" fill="#FEFEE6"/>
<path d="M502.068 340.822C502.068 340.822 508.361 362.607 535.158 362.073C535.158 362.073 573.225 363.245 572.176 321.545C572.176 321.545 571.127 304.22 556.957 297.006L502.089 340.822H502.068Z" fill="#F08200"/>
<path d="M512.022 332.869C512.022 332.869 515.621 350.009 533.287 349.66C533.287 349.66 555.333 350.358 556.217 328.327C556.217 328.327 556.957 314.989 545.914 305.802L512.001 332.869H512.022Z" fill="#FCBE15"/>
<path d="M516.464 329.313C516.464 329.313 519.405 344.892 534.109 342.775C534.109 342.775 548.546 341.603 548.279 323.23C548.279 323.23 546.942 313.057 541.43 309.378L516.464 329.313Z" fill="black"/>
<path opacity="0.87" d="M540.999 313.982C540.999 313.982 562.346 307.158 557.986 325.696C557.986 325.696 556.238 330.588 552.557 323.6C552.557 323.6 550.808 316.078 542.397 318.359C542.397 318.359 539.066 317.825 540.999 313.982Z" fill="#FCFD88"/>
<path d="M450.901 341.357C450.901 341.357 444.608 363.142 417.811 362.607C417.811 362.607 379.744 363.779 380.793 322.079C380.793 322.079 381.842 304.754 396.012 297.54L450.881 341.357H450.901Z" fill="#F08200"/>
<path d="M440.927 333.383C440.927 333.383 437.328 350.523 419.662 350.173C419.662 350.173 397.616 350.872 396.732 328.841C396.732 328.841 395.991 315.502 407.035 306.316L440.947 333.383H440.927Z" fill="#FCBE15"/>
<path d="M436.505 329.848C436.505 329.848 433.379 345.467 418.675 343.371C418.675 343.371 404.423 342.138 404.69 323.785C404.69 323.785 406.027 313.612 411.539 309.933L436.505 329.868V329.848Z" fill="black"/>
<path opacity="0.87" d="M411.95 314.495C411.95 314.495 390.603 307.672 394.963 326.21C394.963 326.21 396.711 331.101 400.392 324.114C400.392 324.114 402.14 316.592 410.552 318.873C410.552 318.873 413.883 318.339 411.95 314.495Z" fill="#FCFD88"/>
<path d="M513.009 479.527C513.009 479.527 523.518 431.251 473.461 432.299C473.461 432.299 430.048 435.793 445.102 485.466C445.102 485.466 453.143 476.711 457.359 463.435C457.359 463.435 447.549 479.876 465.77 503.306C465.77 503.306 473.811 517.651 473.811 535.14C473.811 535.14 485.019 518.699 485.719 498.414L487.467 505.402C487.467 505.402 499.724 497.366 495.878 460.619L513.03 479.506L513.009 479.527Z" fill="url(#paint1_linear_632_8)"/>
<path opacity="0.83" d="M468.567 494.756C467.868 493.831 461.636 484.973 460.978 463.846C460.937 462.798 460.094 461.955 459.045 461.955C457.914 461.955 457.009 460.969 457.132 459.838C457.544 455.831 456.947 452.748 456.351 450.795C455.94 449.48 454.315 449.028 453.266 449.891C440.989 459.859 442.737 473.567 444.423 479.876C444.834 481.418 446.85 481.788 447.837 480.534C449.174 478.828 450.346 477.164 451.333 475.54C452.32 473.916 454.706 474.512 454.891 476.362C455.57 482.63 457.708 490.358 463.035 498.353C463.035 498.353 469.39 507.519 472.68 522.583C473.153 524.782 476.382 524.577 476.505 522.357C476.875 516.089 475.539 506.82 468.711 494.982C468.67 494.9 468.629 494.838 468.587 494.776L468.567 494.756Z" fill="#FFF388"/>
<path d="M159.714 656.849C159.714 656.849 164.711 661.576 167.323 652.389L166.788 620.636C166.788 620.636 164.958 617.759 169.668 615.909C169.668 615.909 169.935 619.588 173.081 622.198C173.081 622.198 176.763 622.465 180.691 621.15L176.495 650.806C176.495 650.806 173.349 666.282 162.326 666.549C162.326 666.549 154.716 665.501 159.693 656.849H159.714Z" fill="#260D2F"/>
<path opacity="0.2" d="M157.781 654.917C157.781 654.917 162.778 659.644 165.39 650.457L164.855 618.704C164.855 618.704 163.025 615.827 167.735 613.977C167.735 613.977 168.002 617.656 171.149 620.266C171.149 620.266 174.83 620.533 178.758 619.218L174.562 648.874C174.562 648.874 171.416 664.35 160.393 664.617C160.393 664.617 152.784 663.569 157.76 654.917H157.781Z" fill="#260D2F"/>
<path opacity="0.2" d="M591.775 418.406L597.369 390.065L602.613 392.161L603.662 372.226L609.975 373.973L607.878 361.724L615.569 374.322L618.366 373.623L614.52 362.073L598.418 339.343L612.073 350.543L622.561 353.339L624.33 376.418L615.22 401.964L607.878 416.659L605.41 433.45L594.921 431.682L591.775 418.406Z" fill="#260D2F"/>
</g>
<path d="M400.207 456.961C400.207 456.961 262.809 452.584 234.099 444.198C234.099 444.198 209.606 463.784 199.097 498.764L219.395 487.563L201.894 530.948L214.5 526.755L191.405 584.116C191.405 584.116 189.04 586.993 173.205 579.923C173.205 579.923 152.907 572.935 138.902 600.208C138.902 600.208 133.822 614.204 124.033 622.938C124.033 622.938 110.377 640.777 123.498 649.882C123.498 649.882 122.799 702.351 183.015 703.049C183.015 703.049 194.223 701.652 178.819 691.849C178.819 691.849 163.416 672.263 166.213 665.254C166.213 665.254 169.009 668.748 173.205 656.849L182.315 665.953C182.315 665.953 199.117 710.736 237.616 718.422C237.616 718.422 250.223 717.723 242.511 700.932C242.511 700.932 221.513 674.338 224.31 668.049C224.31 668.049 236.218 668.748 236.917 648.464L236.218 635.166C236.218 635.166 243.909 642.853 269.122 630.974C269.122 630.974 294.336 628.179 300.629 612.087C300.629 612.087 306.757 622.054 318.315 619.424L299.415 650.375C299.415 650.375 293.637 662.973 321.462 651.423C321.462 651.423 350.87 653.006 354.017 601.05C354.017 601.05 362.942 594.227 351.919 571.147L330.922 555.939C330.922 555.939 325.143 548.602 311.487 556.987L296.269 562.762C296.269 562.762 300.464 535.469 292.588 514.486L368.721 531.811C368.721 531.811 364.526 571.682 370.819 587.959C370.819 587.959 380.793 614.717 354.552 636.235C354.552 636.235 373.986 636.77 414.932 622.075C414.932 622.075 456.413 606.867 532.546 593.734C532.546 593.734 589.78 553.863 626.531 576.943L726.294 552.281L716.32 378.597C716.32 378.597 746.243 381.227 751.507 340.823C751.507 340.823 759.384 335.582 763.847 342.138C763.847 342.138 763.579 345.549 771.723 343.72C771.723 343.72 768.042 363.142 757.286 368.917C757.286 368.917 788.793 382.831 802.181 334.554C802.181 334.554 820.813 338.48 823.446 299.39C823.446 299.39 822.911 267.637 796.135 247.969C796.135 247.969 771.991 223.307 745.728 237.467C745.728 237.467 735.754 213.072 707.127 214.387C707.127 214.387 673.256 213.339 668.525 248.503V286.812C668.525 286.812 643.847 285.764 643.58 318.298C643.58 318.298 653.122 420.79 605.862 521.186L584.166 522.234C584.166 522.234 557.554 473.608 541.451 459.612C541.451 459.612 572.258 452.974 579.6 433.018L611.456 439.656L604.114 425.661L609.009 406.773L616.351 409.569L616.7 382.625L621.945 381.926L618.448 356.031L630.356 354.284C630.356 354.284 624.762 339.24 606.562 317.558C606.562 317.558 635.436 295.691 630.191 245.852C630.191 245.852 628.608 195.48 607.61 159.267C607.61 159.267 573.472 216.463 520.454 246.9V217.511L494.994 236.666V206.763L468.485 231.692V209.393C468.485 209.393 441.708 223.821 434.346 246.119C434.346 246.119 374.829 216.812 351.035 159.452C351.035 159.452 290.819 249.346 348.238 315.461L348.937 320.702L330.387 340.987C330.387 340.987 326.541 349.742 336.516 354.983C336.516 354.983 329.873 387.681 347.189 410.247C347.189 410.247 357.349 421.448 349.986 440.335C349.986 440.335 350.685 447.672 369.235 432.813L400.207 456.941V456.961Z" stroke="#260D2F" stroke-width="5" stroke-linejoin="round"/>
<path d="M691.785 336.28C691.785 336.28 677.965 355.003 664.824 332.951L661.142 326.662C661.142 326.662 662.726 350.276 675.312 351.324C675.312 351.324 685.986 350.975 691.764 336.28H691.785Z" fill="#260D2F"/>
<path d="M716.382 228.794C716.382 228.794 740.011 224.067 742.891 262.643C742.891 262.643 744.474 280.749 735.281 291.231C735.281 291.231 731.353 295.156 731.6 288.867C731.6 288.867 733.184 260.526 719.528 257.382C719.528 257.382 714.284 256.066 707.456 257.382C707.456 257.382 694.068 236.912 716.382 228.794Z" fill="#F4FFB1" stroke="#260D2F" stroke-width="4" stroke-miterlimit="10"/>
<path d="M683.25 305.864C683.25 305.864 704.865 295.238 717.574 331.759C717.574 331.759 723.744 348.858 717.574 361.354C717.574 361.354 714.777 366.163 713.42 360.018C713.42 360.018 707.662 332.232 693.657 332.684C693.657 332.684 688.248 332.766 681.975 335.787C681.975 335.787 663.775 319.448 683.25 305.864Z" fill="#F4FFB1" stroke="#260D2F" stroke-width="4" stroke-miterlimit="10"/>
<path d="M796.114 265.315C796.114 265.315 820.217 265.603 815.014 303.932C815.014 303.932 812.792 321.976 801.625 330.32C801.625 330.32 796.957 333.362 798.52 327.238C798.52 327.238 805.944 299.842 793.255 293.944C793.255 293.944 788.402 291.58 781.451 291.436C781.451 291.436 772.607 268.644 796.134 265.315H796.114Z" fill="#F4FFB1" stroke="#260D2F" stroke-width="4" stroke-miterlimit="10"/>
<path d="M792.001 315.523C792.001 315.523 810.798 330.588 783.096 357.572C783.096 357.572 770.222 370.417 756.279 370.129C756.279 370.129 750.726 369.636 755.723 365.793C755.723 365.793 773.369 352.29 772.094 336.322C772.094 336.322 771.168 331.738 769.317 331.04C769.317 331.04 772.464 302.699 791.98 315.523H792.001Z" fill="#F4FFB1" stroke="#260D2F" stroke-width="4" stroke-miterlimit="10"/>
<path d="M430.829 400.813L442.387 443.849" stroke="#260D2F" stroke-width="3" stroke-miterlimit="10"/>
<path d="M476.341 391.729V429.154" stroke="#260D2F" stroke-width="3" stroke-miterlimit="10"/>
<path d="M524.3 402.56L513.441 441.753" stroke="#260D2F" stroke-width="3" stroke-miterlimit="10"/>
<path d="M542.5 388.4L563.847 403.629" stroke="#260D2F" stroke-width="3" stroke-miterlimit="10"/>
<path d="M408.948 387.701L392.331 400.813" stroke="#260D2F" stroke-width="3" stroke-miterlimit="10"/>
<path d="M389.513 360.943C389.513 360.943 364.3 345.549 292.896 344.152C292.896 344.152 289.01 347.173 292.896 351.057C292.896 351.057 368.063 351.674 389.513 360.943Z" fill="#260D2F"/>
<path d="M392.33 372.575C392.33 372.575 303.857 366.019 274.181 393.312C274.181 393.312 271.549 399.087 278.109 398.306C278.109 398.306 351.611 372.061 392.31 372.596L392.33 372.575Z" fill="#260D2F"/>
<path d="M408.33 375.987C408.33 375.987 368.865 381.227 302.007 424.612C302.007 424.612 298.511 433.368 307.251 430.901C307.251 430.901 395.292 380.179 408.33 375.987Z" fill="#260D2F"/>
<path d="M569.79 362.34C569.79 362.34 631.754 333.485 685.841 343.967C685.841 343.967 693.368 349.043 684.957 350.441C676.546 351.838 580.998 357.079 569.79 362.34Z" fill="#260D2F"/>
<path d="M565.945 372.493C565.945 372.493 653.101 368.999 681.461 387.886C681.461 387.886 687.754 395.922 677.616 396.292C677.616 396.292 606.911 373.911 565.945 372.513V372.493Z" fill="#260D2F"/>
<path d="M559.302 376.685C559.302 376.685 628.608 398.018 669.574 420.769C669.574 420.769 676.217 428.456 666.078 426.709C666.078 426.709 600.968 399.416 559.323 376.685H559.302Z" fill="#260D2F"/>
<path d="M664.659 287.12C664.659 287.12 682.16 287.12 705.975 305.658" stroke="#260D2F" stroke-width="4" stroke-miterlimit="10"/>
<path d="M708.238 241.125C708.238 241.125 718.644 244.537 722.942 252.758C722.942 252.758 712.268 252.223 709.821 251.442C707.888 250.826 708.238 241.125 708.238 241.125Z" fill="#E5D264"/>
<path d="M691.436 322.47C691.436 322.47 678.952 321.935 678.685 320.044C678.212 316.592 681.975 312.707 681.975 312.707C681.975 312.707 689.173 316.53 691.456 322.49L691.436 322.47Z" fill="#E5D264"/>
<path d="M805.039 303.562C805.039 303.562 808.453 284.942 784.824 278.119C784.824 278.119 782.726 285.456 785.358 286.524C785.358 286.524 801.769 287.059 805.039 303.582V303.562Z" fill="#E5D264"/>
<path d="M771.949 354.202C771.949 354.202 789.985 330.588 777.811 319.572C777.811 319.572 775.446 323.867 774.232 328.758C774.232 328.758 781.06 337.76 771.949 354.202Z" fill="#E5D264"/>
<path d="M231.118 714.25C230.069 714.25 228.958 714.024 227.724 713.551L227.519 713.469L227.313 713.366C225.565 712.462 184.516 690.862 184.125 657.28V655.328L185.606 654.074C186.079 653.684 197.308 644.476 209.791 644.476C213.534 644.476 217.051 645.298 220.218 646.922L223.2 648.443L222.295 651.67C222.254 651.854 216.886 673.331 236.526 705.084L236.958 705.762L237.082 706.564C237.205 707.345 237.493 710.037 235.683 712.174C234.573 713.49 232.927 714.229 231.077 714.229L231.118 714.25Z" fill="#F4FFB1"/>
<path d="M209.812 648.587C212.67 648.587 215.57 649.162 218.346 650.58C218.346 650.58 212.053 673.311 233.051 707.242C233.051 707.242 233.524 710.119 231.117 710.119C230.624 710.119 229.986 709.996 229.205 709.687C229.205 709.687 188.608 688.704 188.259 657.219C188.259 657.219 198.686 648.566 209.812 648.566M209.812 640.345C196.094 640.345 184.29 649.799 182.994 650.889L179.971 653.396L180.012 657.321C180.403 693.328 223.57 716.059 225.421 717.004L225.832 717.209L226.264 717.374C227.971 718.032 229.554 718.34 231.138 718.34C234.223 718.34 236.958 717.086 238.871 714.846C241.811 711.373 241.38 707.119 241.174 705.906L240.907 704.303L240.063 702.926C221.513 672.961 226.12 653.499 226.326 652.677L228.115 646.223L222.13 643.264C218.367 641.332 214.233 640.366 209.832 640.366L209.812 640.345Z" fill="#260D2F"/>
<path d="M178.12 710.181C177.174 710.181 176.166 710.099 175.015 709.914L174.768 709.872L174.521 709.79C173.945 709.626 117.637 692.712 130.367 642.216L130.552 641.496L130.963 640.88C131.333 640.345 134.747 635.68 141.616 635.68C147.128 635.68 153.071 638.763 159.282 644.805L160.763 646.264L160.475 648.32C160.331 649.347 157.411 674.071 182.48 694.972L182.85 695.281L183.138 695.671C184.207 697.11 187.539 702.165 185.4 706.379C184.536 708.084 182.562 710.14 178.099 710.14L178.12 710.181Z" fill="#F4FFB1"/>
<path d="M141.616 639.832C145.174 639.832 150.069 641.62 156.403 647.785C156.403 647.785 152.557 675.427 179.848 698.158C179.848 698.158 185.709 706.07 178.12 706.07C177.421 706.07 176.598 706.009 175.652 705.844C175.652 705.844 122.449 690.451 134.336 643.223C134.336 643.223 136.701 639.811 141.616 639.811M141.616 631.59C134.809 631.59 129.791 635.351 127.57 638.557L126.727 639.77L126.357 641.209C120.66 663.816 127.2 683.648 145.277 698.569C158.254 709.276 172.732 713.551 173.349 713.736L173.842 713.88L174.357 713.962C175.714 714.168 176.927 714.271 178.099 714.271C185.277 714.271 188.156 710.057 189.081 708.249C192.269 701.919 187.868 695.157 186.449 693.246L185.853 692.444L185.092 691.807C161.894 672.489 164.403 649.779 164.526 648.813L165.102 644.702L162.12 641.866C155.128 635.023 148.218 631.57 141.596 631.57L141.616 631.59Z" fill="#260D2F"/>
<path d="M312.516 640.715C312.516 640.715 335.611 625.24 334.829 595.851C334.829 595.851 328.228 599.92 327.323 605.88C327.323 605.88 326.953 622.876 312.516 640.715Z" fill="#E5D264"/>
<path d="M208.105 649.101C208.105 649.101 208.454 681.983 225.606 694.232C225.606 694.232 214.048 668.686 218.264 651.197C218.264 651.197 215.118 647.004 208.105 649.101Z" fill="#E5D264"/>
<path d="M148.691 643.326C148.691 643.326 146.593 672.448 165.76 682.682C165.76 682.682 154.038 666.241 156.403 647.785C156.403 647.785 149.061 640.263 148.711 643.326H148.691Z" fill="#E5D264"/>
<mask id="mask1_632_8" style="mask-type:luminance" maskUnits="userSpaceOnUse" x="34" y="288" width="179" height="371">
<path d="M194.098 434.389C195.961 431.647 208.841 412.121 212.987 393.14L205.239 400.046C206.223 393.684 206.411 387.636 205.511 382.111C205.511 382.111 205.322 350.384 184.904 326.234C184.611 325.418 177.763 307.88 137.073 288.061C137.073 288.061 143 295.072 148.968 303.276C136.655 299.697 121.66 298.337 103.399 300.346C103.399 300.346 40.3018 307.294 34.9616 367.127C34.9616 367.127 28.5535 417.353 83.6092 420.032C83.6092 420.032 117.828 418.965 120.508 385.292C120.508 385.292 120.864 366.771 102.687 366.771C102.687 366.771 94.4989 367.482 94.4989 372.819C94.4989 372.819 93.7869 384.225 102.687 379.223C102.687 379.223 107.671 393.119 93.7659 393.119C93.7659 393.119 77.7246 396.321 77.7246 371.752C77.7246 371.752 76.6566 346.094 110.163 346.094C110.163 346.094 150.434 348.585 150.434 389.561C150.434 389.561 154.706 421.978 110.519 465.801C110.519 465.801 52.071 516.384 69.1804 588.689C69.1804 588.689 71.4421 599.258 78.7298 614.263C75.7142 612.359 70.6254 608.047 63.2958 598.211C63.2958 598.211 64.1963 629.289 109.095 658.86L106.457 654.654C107.211 655.47 107.964 656.265 108.739 657.081C108.739 657.081 99.4621 628.578 115.147 613.258C115.147 613.258 127.985 601.141 129.576 594.737C129.576 594.737 116.739 541.832 147.754 508.18C147.754 508.18 177.03 471.933 194.098 434.368V434.389Z" fill="white"/>
</mask>
<g mask="url(#mask1_632_8)">
<path d="M237.049 256H-18V682.927H237.049V256Z" fill="url(#paint2_radial_632_8)"/>
<path opacity="0.76" d="M140.089 431.249C140.089 431.249 171.899 390.901 172.172 371.396C172.172 371.396 167.899 311.019 99.462 321.169C99.462 321.169 65.2433 323.848 55.0866 358.567C55.0866 358.567 45.9979 418.944 93.0539 418.944C110.268 418.944 120.152 392.763 120.152 392.763L116.404 352.686L137.262 380.479L141.01 393.83L140.11 431.228L140.089 431.249Z" fill="url(#paint3_radial_632_8)"/>
<path opacity="0.76" d="M108.006 606.415C108.006 606.415 99.8807 569.854 109.786 537.751C115.294 519.941 125.765 501.399 137.597 486.98C148.549 473.628 167.732 450.084 179.836 433.551C179.836 433.551 202.286 405.676 192.129 380.29L217.07 421.602L151.314 529.171L133.136 592.749L108.006 606.373V606.415Z" fill="url(#paint4_linear_632_8)"/>
<path d="M119.713 307.775C129.513 307.775 138.56 308.968 146.623 311.291C147.397 311.521 148.172 311.626 148.968 311.626C151.649 311.626 154.224 310.328 155.816 308.068C155.816 308.047 155.858 308.026 155.858 307.984C171.229 318.637 178.663 328.996 179.396 330.042C179.731 330.649 180.15 331.214 180.611 331.716C196.066 348.082 197.113 381.943 197.134 382.278C197.134 382.634 197.176 382.969 197.218 383.324C197.616 386.003 197.741 391.549 196.904 399.104C196.569 402.139 197.909 405.068 200.338 406.826C198.767 410.761 196.883 414.381 194.265 419.467C192.527 422.815 190.558 426.624 188.171 431.479C188.087 431.668 188.003 431.835 187.92 432.023C177.805 456.948 141.555 502.508 141.199 502.969C141.115 503.073 141.031 503.178 140.968 503.283C111.42 544.05 117.912 582.85 120.718 594.172C118.854 597.227 114.058 602.773 109.388 607.189C109.346 607.231 109.325 607.252 109.284 607.294C99.776 616.565 97.4934 629.184 97.6609 639.69C90.6454 633.474 85.5147 627.468 81.7662 622.069C82.6876 621.713 83.5462 621.19 84.3001 620.52C87.0853 618.03 87.8811 613.991 86.2477 610.621C79.5673 596.872 77.3684 587.036 77.3475 586.952C77.3265 586.805 77.2846 586.68 77.2427 586.554C69.8922 558.971 74.0387 531.493 89.5565 504.852C101.389 484.531 115.734 472.351 115.88 472.226C116.09 472.058 116.278 471.891 116.467 471.703C160.235 427.608 159.355 394.772 158.811 389.121C158.643 364.238 145.492 351.514 134.455 345.215C122.833 338.581 111.168 337.786 110.687 337.765C110.519 337.765 110.352 337.765 110.163 337.765C96.3625 337.765 85.6822 341.594 78.4155 349.17C69.4943 358.483 69.3058 369.805 69.3477 371.898C69.4105 400.213 88.2162 401.657 91.9857 401.657C92.97 401.657 93.8076 401.594 94.4149 401.511C102.498 401.322 106.771 397.681 108.928 394.605C111.587 390.817 112.09 386.526 111.88 383.052C112.048 383.994 112.09 384.706 112.111 384.999C111.168 395.63 106.477 403.017 97.7237 407.58C91.3365 410.928 84.9074 411.556 83.5881 411.64C69.243 410.865 58.5628 406.45 51.8195 398.497C41.2649 386.024 43.2334 368.34 43.2544 368.194C43.2544 368.089 43.2753 367.984 43.2963 367.88C47.9453 315.749 102.038 308.926 104.32 308.675C109.64 308.089 114.833 307.796 119.733 307.796M137.094 288.082C137.094 288.082 143.021 295.093 148.989 303.297C140.549 300.848 130.874 299.446 119.754 299.446C114.624 299.446 109.179 299.739 103.42 300.388C103.42 300.388 40.3225 307.336 34.9824 367.168C34.9824 367.168 28.5742 417.395 83.63 420.074C83.63 420.074 117.849 419.006 120.529 385.333C120.529 385.333 120.885 366.812 102.708 366.812C102.708 366.812 94.5196 367.524 94.5196 372.861C94.5196 372.861 94.038 380.541 98.7917 380.541C99.8388 380.541 101.116 380.164 102.729 379.285C102.729 379.285 107.713 393.181 93.8076 393.181C93.8076 393.181 93.1166 393.328 92.0276 393.328C87.8602 393.328 77.7663 391.319 77.7663 371.814C77.7663 371.814 76.6983 346.157 110.205 346.157C110.205 346.157 150.476 348.647 150.476 389.624C150.476 389.624 155.292 420.785 110.561 465.864C110.561 465.864 49.9557 516.446 69.2221 588.752C69.2221 588.752 71.4838 599.32 78.7715 614.325C75.7559 612.421 70.6671 608.11 63.3375 598.274C63.3375 598.274 64.238 629.352 109.137 658.923C109.137 658.923 108.969 658.441 108.781 657.144C108.781 657.144 99.5038 628.64 115.189 613.321C115.189 613.321 128.026 601.204 129.618 594.8C129.618 594.8 115.545 552.756 147.795 508.242C147.795 508.242 185.051 461.573 195.731 435.225C205.72 414.925 208.882 412.184 213.029 393.181L205.28 400.088C206.118 392.428 206.118 386.024 205.553 382.152C205.553 382.152 204.652 345.027 186.747 326.045C186.454 325.229 170.978 302.794 137.115 288.103L137.094 288.082Z" fill="#260D2F"/>
</g>
<defs>
<linearGradient id="paint0_linear_632_8" x1="114.655" y1="428.538" x2="833.996" y2="428.538" gradientUnits="userSpaceOnUse">
<stop stop-color="#932FF7"/>
<stop offset="0.25" stop-color="#6320D0"/>
<stop offset="0.54" stop-color="#9E32FF"/>
<stop offset="0.61" stop-color="#9A30FB"/>
<stop offset="0.68" stop-color="#8E2DF2"/>
<stop offset="0.75" stop-color="#7A27E2"/>
<stop offset="0.81" stop-color="#6320D0"/>
<stop offset="1" stop-color="#8F2DF3"/>
</linearGradient>
<linearGradient id="paint1_linear_632_8" x1="441.914" y1="483.72" x2="513.914" y2="483.72" gradientUnits="userSpaceOnUse">
<stop stop-color="#6320D0"/>
<stop offset="0.5" stop-color="#9E32FF"/>
<stop offset="0.78" stop-color="#7A27E2"/>
<stop offset="1" stop-color="#6320D0"/>
</linearGradient>
<radialGradient id="paint2_radial_632_8" cx="0" cy="0" r="1" gradientUnits="userSpaceOnUse" gradientTransform="translate(109.514 469.464) scale(168.476 168.364)">
<stop offset="0.11" stop-color="#6320D0"/>
<stop offset="0.53" stop-color="#9E32FF"/>
<stop offset="0.69" stop-color="#832AEA"/>
<stop offset="0.88" stop-color="#6B22D7"/>
<stop offset="1" stop-color="#6320D0"/>
</radialGradient>
<radialGradient id="paint3_radial_632_8" cx="0" cy="0" r="1" gradientUnits="userSpaceOnUse" gradientTransform="translate(113.263 375.644) scale(57.2965 57.2585)">
<stop offset="0.32"/>
<stop offset="0.78" stop-opacity="0.96"/>
<stop offset="0.81" stop-opacity="0.95"/>
<stop offset="1" stop-color="#250E2A" stop-opacity="0"/>
</radialGradient>
<linearGradient id="paint4_linear_632_8" x1="180.443" y1="510.901" x2="132.649" y2="483.269" gradientUnits="userSpaceOnUse">
<stop offset="0.23"/>
<stop offset="0.49" stop-opacity="0.96"/>
<stop offset="0.51" stop-opacity="0.95"/>
<stop offset="1" stop-color="#250E2A" stop-opacity="0"/>
</linearGradient>
</defs>
</svg>
