<svg width="555" height="344" viewBox="32 70 500 200" fill="none" xmlns="http://www.w3.org/2000/svg">
<path d="M158.15 126.405L60.5162 143.482L40.7266 165.53L40.385 207.497L33 219.238L41.3836 229.197L40.0433 268.67L63.1968 291.081L84.3399 286.109L96.0875 273.309L172.25 256.957C172.25 256.957 170.909 309.049 209.161 305.859C209.161 305.859 250.764 304.787 255.797 260.522C255.797 260.522 257.032 245.354 249.647 237.875L283.537 229.225C283.537 229.225 271.789 236.106 273.813 253.168C273.813 253.168 276.611 288.964 312.511 288.783C312.511 288.783 367.701 288.073 377.097 238.46L377.596 210.728L454.429 191.173V176.952H458.121C458.121 176.952 467.175 190.114 482.273 188.331C482.273 188.331 503.075 189.042 515.151 154.903V115.068L522.194 104.05L514.139 92.6708V55.9972C514.139 55.9972 505.755 35.021 487.293 37.152C487.293 37.152 474.547 36.0795 463.141 48.5316L377.925 69.8699L374.574 75.2045C374.574 75.2045 361.828 65.2457 351.42 66.6664C341.013 68.0871 350.08 67.0285 350.08 67.0285C350.08 67.0285 329.279 71.2906 318.543 88.7151L310.159 90.1358L308.477 84.8012L238.36 101.515L237.019 107.56C237.019 107.56 233.668 104.357 214.877 110.053L158.176 126.405H158.15Z" fill="#35E770"/>
<path d="M162.156 128.114L67.2833 144.063L48.0533 164.656L47.7213 203.851L40.5452 214.817L48.6917 224.118L47.3893 260.985L69.8881 281.915L90.4333 277.271L101.849 265.316L175.857 250.044C175.857 250.044 174.555 298.697 211.725 295.718C211.725 295.718 252.151 294.716 257.042 253.375C257.042 253.375 258.242 239.208 251.066 232.223L283.997 224.144C283.997 224.144 272.582 230.57 274.548 246.506C274.548 246.506 277.268 279.938 312.153 279.769C312.153 279.769 365.782 279.106 374.912 232.769L375.397 206.869L450.057 188.605V175.323H453.645C453.645 175.323 462.443 187.616 477.114 185.951C477.114 185.951 497.327 186.614 509.062 154.73V117.525L515.906 107.236L508.079 96.6076V62.3559C508.079 62.3559 499.932 42.7649 481.992 44.7552C481.992 44.7552 469.606 43.7535 458.523 55.3833L375.716 75.3125L372.46 80.2948C372.46 80.2948 360.074 70.9936 349.961 72.3205C339.848 73.6474 348.659 72.6587 348.659 72.6587C348.659 72.6587 328.446 76.6394 318.013 92.9131L309.867 94.24L308.233 89.2577L240.098 104.868L238.795 110.514C238.795 110.514 235.539 107.522 217.28 112.842L162.182 128.114H162.156Z" fill="#17091B"/>
<path d="M74.8393 200.962V168.124L79.8067 162.706L84.7867 161.564L89.7667 164.241V189.022L102.443 176.232V151.286L95.061 153.874L83.8184 148.685L72.2613 153.544L59.7485 168.124L59.6605 204.413L54.2781 211.544L59.497 215.909L74.4369 212.623L79.7564 205.822L74.8393 200.962Z" fill="#FDFFA7"/>
<path d="M59.4969 215.909L59.0945 257.541L75.1536 271.143L89.9301 267.26L103.084 249.116V212.192L88.9617 222.228L88.6348 247.821L84.0698 253.658L78.046 254.711L73.8709 251.07L74.2733 212.839L74.4368 212.623L59.4969 215.909Z" fill="#F88601"/>
<path d="M131.669 200.201V233.242L128.135 237.67L123.721 237.937L120.426 234.219L120.753 203.119L121.231 202.345L108.668 205.111L108.705 205.137L108.869 244.903L119.143 252.681L133.907 248.798L144.181 235.183L144.031 197.346L131.581 200.074L131.669 200.201Z" fill="#F88601"/>
<path d="M147.313 190.405L144.144 186.637L144.509 145.779L147.715 140.919L132.31 143.508V191.395L128.877 195.887L131.581 200.074L144.031 197.346V197.041L147.313 190.405Z" fill="#FDFFA7"/>
<path d="M125.142 196.204L121.068 192.105V147.72L105.662 149.992L109.184 156.463L108.869 194.694L103.839 200.531L108.668 205.111L121.231 202.345L125.142 196.204Z" fill="#FDFFA7"/>
<path d="M200.055 179.036L197.062 176.6V132.063L200.697 127.736L178.438 132.063L183.355 135.082L174.288 170.877L166.667 141.782L168.805 135.298L147.715 140.919L151.89 145.665L151.677 186.51L148.847 190.24L152.016 195.595L163.536 193.057L163.661 181.739L166.264 192.461L181.858 189.035L185.53 172.095L185.203 188.299L197.653 185.571L197.641 185.457L200.055 179.036Z" fill="#FDFFA7"/>
<path d="M174.124 224.817L181.858 189.035L166.264 192.461L174.124 224.817Z" fill="#F88601"/>
<path d="M152.054 195.671L151.677 238.533L145.691 246.096L166.453 242.213L163.02 237.023L163.536 193.057L152.016 195.595L152.054 195.671Z" fill="#F88601"/>
<path d="M183.996 247.606C183.996 247.606 183.569 288.425 218.881 281.941C218.881 281.941 248.409 278.832 247.856 245.093C247.843 243.989 246.761 243.203 245.718 243.558L238.084 246.197C238.084 246.197 235.519 248.304 232.79 245.436C232.79 245.436 221.635 236.224 216.089 248.24C216.089 248.24 213.096 256.881 221.233 259.47C221.233 259.47 228.3 261.195 228.3 253.417C228.3 253.417 230.866 250.181 232.576 255.79C232.576 255.79 238.361 270.039 217.158 271.778C217.158 271.778 198.106 276.523 198.106 251.26L197.628 185.545L185.178 188.273L183.984 247.58L183.996 247.606Z" fill="#F88601"/>
<path d="M205.626 183.997V226.441L201.187 234.384L229.759 228.065L245.655 210.682V175.039L205.5 183.858L205.626 184.01V183.997ZM222.214 182.158L227.03 181.612L230.991 185.063L230.664 208.283L217.825 216.493L217.711 186.687L222.201 182.158H222.214Z" fill="#F88601"/>
<path d="M233.444 166.182L243.504 156.463L244.146 125.363L230.665 118.879L200.055 126.657L204.973 130.324L204.759 173.136L201.439 178.592L205.488 183.832L245.642 175.014V174.811L233.444 166.17V166.182ZM218.24 165.967V133.357L225.521 131.415L230.438 133.788L231.08 153.012L218.24 165.967Z" fill="#FDFFA7"/>
<path d="M264.908 213.968V170.801L250.132 174.037L250.245 174.176L250.358 218.942L246.938 224.55L264.845 220.427L266.706 217.001L264.908 213.968Z" fill="#F88601"/>
<path d="M264.908 170.395L268.983 164.101L265.122 159.863L264.694 113.055L268.555 108.081L247.151 112.408L250.572 117.153V162.756L245.869 169.025L250.132 174.037L264.908 170.801V170.395Z" fill="#FDFFA7"/>
<path d="M307.376 155.359L300.95 150.385L294.876 104.414L297.454 100.747L277.333 104.845L281.181 109.172L273.346 160.752L269.41 163.594L272.73 168.987L272.718 169.088L283.797 166.652L287.393 135.945L290.273 165.231L302.912 162.452V162.401L307.376 155.359Z" fill="#FDFFA7"/>
<path d="M291.028 172.882L282.891 174.392L283.797 166.652L272.718 169.088L267.675 215.237L266.706 217.001L268.291 219.64L264.845 220.426L264.694 220.693L282.087 216.556L279.76 213.08L281.395 184.111L293.379 181.307L296.222 208.271L291.719 214.539L316.204 209.197L309.061 204.604L302.912 162.452L290.273 165.231L291.028 172.882Z" fill="#F88601"/>
<path d="M266.706 217.001L264.845 220.426L268.291 219.64L266.706 217.001Z" fill="#F88601"/>
<path d="M406.649 139.676L394.551 142.328L395.758 154.115L386.276 155.245L387.836 143.8L377.046 146.172L377.083 146.21L372.053 191.94L367.979 197.929L386.93 193.882L383.233 189.758L385.748 164.406L397.116 163.264L399.845 185.304L397.041 191.369L416.948 186.751L412.874 181.992L406.649 139.676Z" fill="#F88601"/>
<path d="M391.746 114.895L394.551 142.328L406.649 139.676V139.625L411.566 132.659L405.139 127.545L399.204 83.9725L401.933 80.0136L381.812 84.2262L385.534 87.373L377.611 136.884L373.273 141.072L377.045 146.172L387.835 143.8L391.746 114.895Z" fill="#FDFFA7"/>
<path d="M352.46 191.458L345.179 196.419L338.966 197.067L335.118 194.478L335.546 155.283L320.782 158.531L320.568 202.256L336.627 215.427L339.193 215.211L351.177 203.335L351.605 218.891C351.605 218.891 352.36 246.108 319.072 254.635C319.072 254.635 296.435 258.581 298.523 241.249C298.523 241.249 303.339 228.395 313.564 238.927C313.564 238.927 318.217 244.916 323.196 242.162C323.196 242.162 328.176 240.386 323.838 230.983C323.838 230.983 319.348 220.287 302.811 221.48C302.811 221.48 286.601 223.535 285.319 239.726C285.319 239.726 281.408 262.299 307.955 267.26C307.955 267.26 334.98 270.661 356.598 247.339C356.598 247.339 367.513 234.384 366.608 220.833V148.482L351.404 151.819L352.473 191.471L352.46 191.458Z" fill="#F88601"/>
<path d="M344.864 146.858L351.391 151.717V151.806L366.595 148.469L369.588 141.668L344.864 146.858Z" fill="#FDFFA7"/>
<path d="M335.545 155.092L341.33 147.961L335.759 144.231L335.545 104.63L342.135 97.8285L348.071 97.1813L352.673 101.229L351.818 127.52L366.695 108.462L366.808 88.1597L351.718 82.8177L331.911 89.4032L320.354 102.041L321.02 146.832L313.286 153.76L320.781 158.404V158.531L335.545 155.283V155.092Z" fill="#FDFFA7"/>
<path d="M423.425 136.377L422.645 178.49L416.948 186.751L442.628 181.244L437.66 175.661V133.141L437.861 132.811L422.984 136.085L423.425 136.377Z" fill="#F88601"/>
<path d="M437.334 119.856L436.692 82.6021L446.212 80.9779L451.142 85.8377L451.456 71.9055L455.631 64.9395L404.75 76.4481L408.762 81.6251L407.479 99.4527L414.861 88.109L423.123 86.5736L421.928 125.147L416.357 131.517L422.985 136.085L437.862 132.811L442.477 125.693L437.334 119.856Z" fill="#FDFFA7"/>
<path d="M483.461 122.8L482.933 152.897L477.475 159.457L473.614 160.27L469.125 155.499L468.584 126.074L453.669 129.347L453.82 129.474V163.594L467.679 175.953L483.889 172.501L498.024 155.816L498.338 119.64L498.413 119.513L483.461 122.8Z" fill="#F88601"/>
<path d="M468.584 126.01L472.872 118.346L468.156 111.761L468.32 77.9073L472.168 70.6113L480.355 69.1521L483.888 74.3418L483.574 109.489L479.399 117.153L483.461 122.66V122.8L498.413 119.513L502.84 111.976L497.055 106.14L497.533 64.6222L484.53 56.3619L467.2 60.0797L454.675 72.0705V115.643L447.721 124.284L453.669 129.347L468.584 126.074V126.01Z" fill="#FDFFA7"/>
</svg>
